PathFileType	3	(X/Y/Z)	C:\Files\Projects\EMG to Moment Estimation\Newest Patten Data\NSFproject\Patient 4\Session 1\Patient4_Static01.TRC
DataRate	CameraRate	NumFrames	NumMarkers	Units	OrigDataRate	OrigDataStartFrame	OrigNumFrames
100.0	100.0	4	47	mm	100.0	456	910	
Frame#	Time	Sacral		Lumbar		L.Shoulder		Chest		R.Shoulder		Neck		R.ASIS		L.ASIS		R.Thigh.Superior		R.Thigh.Lateral		R.Thigh.Inferior		R.Knee.Lateral		R.Patella		R.Knee.Medial		L.Thigh.Superior		L.Thigh.Lateral		L.Thigh.Inferior		L.Patella		L.Knee.Medial		L.Knee.Lateral		L.Shank.Superior		L.Shank.Lateral		L.Shank.Inferior		L.Ankle.Medial		L.Ankle.Lateral		R.Shank.Superior		R.Shank.Lateral		R.Shank.Inferior		R.Ankle.Lateral		R.Ankle.Medial		R.Heel		R.Midfoot.Superior		R.Midfoot.Lateral		R.Toe.Lateral		R.Toe.Medial		R.Toe		L.Heel		L.Midfoot.Lateral		L.Toe.Lateral		L.Midfoot.Superior		L.Toe		L.Toe.Medial		L.Elbow		L.Wrist		R.Elbow		R.Wrist		Ground		
		X1	Y1	Z1	X2	Y2	Z2	X3	Y3	Z3	X4	Y4	Z4	X5	Y5	Z5	X6	Y6	Z6	X7	Y7	Z7	X8	Y8	Z8	X9	Y9	Z9	X10	Y10	Z10	X11	Y11	Z11	X12	Y12	Z12	X13	Y13	Z13	X14	Y14	Z14	X15	Y15	Z15	X16	Y16	Z16	X17	Y17	Z17	X18	Y18	Z18	X19	Y19	Z19	X20	Y20	Z20	X21	Y21	Z21	X22	Y22	Z22	X23	Y23	Z23	X24	Y24	Z24	X25	Y25	Z25	X26	Y26	Z26	X27	Y27	Z27	X28	Y28	Z28	X29	Y29	Z29	X30	Y30	Z30	X31	Y31	Z31	X32	Y32	Z32	X33	Y33	Z33	X34	Y34	Z34	X35	Y35	Z35	X36	Y36	Z36	X37	Y37	Z37	X38	Y38	Z38	X39	Y39	Z39	X40	Y40	Z40	X41	Y41	Z41	X42	Y42	Z42	X43	Y43	Z43	X44	Y44	Z44	X45	Y45	Z45	X46	Y46	Z46	X47	Y47	Z47	
456	4.550	  635.28284	  994.45740	  516.21307	  647.87555	 1063.26350	  513.77515	  742.62988	 1441.60620	  347.97159	  849.16028	 1379.96010	  508.68558	  758.34167	 1434.21800	  685.35992	  721.24921	 1495.98050	  502.54391	  873.51215	  948.04773	  632.95404	  852.68921	  973.44366	  355.79181	  900.62677	  741.24927	  602.00409	  813.67847	  638.95184	  670.42261	  877.31848	  576.60187	  589.97058	  827.87219	  487.07556	  652.43475	  868.96051	  487.88724	  596.00287	  806.73981	  463.96555	  544.11249	  884.61115	  749.73578	  363.40564	  778.40894	  651.02319	  297.01749	  853.13275	  558.05823	  346.31750	  845.93787	  488.57574	  349.32504	  813.65320	  490.63782	  397.93042	  800.24695	  510.52414	  297.67389	  820.84937	  420.90125	  331.46735	  730.38885	  315.35922	  265.38068	  780.41522	  194.92664	  321.78250	  741.20734	   96.53158	  364.97610	  717.33508	   85.08176	  277.19534	  838.65021	  400.67557	  611.25690	  771.00806	  304.98047	  689.10004	  797.61115	  204.38368	  624.33191	  735.16986	   84.96011	  669.41394	  748.59949	  105.93094	  577.38959	  652.54785	   43.77870	  625.18640	  827.68671	   97.75635	  630.64343	  747.29773	   37.00453	  684.46521	  833.73712	   31.71782	  696.00610	  859.08826	   29.36203	  576.93835	  950.71033	   44.74324	  639.17133	  650.64459	   38.21822	  333.64621	  735.11462	   35.21350	  263.83121	  830.31824	   33.54469	  242.34550	  813.58313	   96.34484	  300.49789	  944.63049	   45.34900	  291.46841	  855.34082	   27.39384	  357.23230	  741.08588	 1083.60190	  237.88885	  783.02014	  827.01953	  236.59831	  741.43207	 1076.32860	  774.36053	  803.66016	  824.58972	  748.14679	  146.80058	    9.64373	  329.07965	
457	4.560	  635.29578	  994.31671	  516.30396	  647.84375	 1063.21890	  513.79230	  742.61334	 1441.60740	  347.99823	  849.10638	 1379.92210	  508.71970	  758.28357	 1434.20650	  685.35504	  721.23419	 1495.97710	  502.60883	  873.50293	  948.04315	  632.96857	  852.68530	  973.43335	  355.78592	  900.63373	  741.25195	  602.01874	  813.74030	  638.92853	  670.42059	  877.33978	  576.58667	  589.97980	  827.89282	  487.07529	  652.43402	  868.96442	  487.89224	  596.00232	  806.70422	  463.95129	  544.14490	  884.58734	  749.70667	  363.41574	  778.39868	  651.03802	  297.00235	  853.13202	  558.05634	  346.31693	  845.93860	  488.57648	  349.32446	  813.65607	  490.63321	  397.93698	  800.24158	  510.51974	  297.67398	  820.83972	  420.90189	  331.46289	  730.39374	  315.37418	  265.37250	  780.42426	  194.93045	  321.78180	  741.21967	   96.53509	  364.97168	  717.32556	   85.09385	  277.18539	  838.64966	  400.65445	  611.24579	  771.05902	  305.01001	  689.14789	  797.61072	  204.36420	  624.31976	  735.41364	   85.09264	  669.73407	  748.58771	  105.90961	  577.44012	  652.55121	   43.76581	  625.19800	  827.68457	   97.75935	  630.63855	  747.28253	   36.99899	  684.45160	  833.70569	   31.67861	  695.98969	  859.08478	   29.36896	  576.92078	  950.71393	   44.74936	  639.16022	  650.65826	   38.19053	  333.64328	  735.10187	   35.19470	  263.83435	  830.29089	   33.46053	  242.41342	  813.58728	   96.33493	  300.49753	  944.63293	   45.37260	  291.45703	  855.36267	   27.41486	  357.21893	  741.05963	 1083.59500	  237.91104	  783.01825	  827.03918	  236.57617	  741.38379	 1076.29910	  774.34528	  803.63953	  824.55505	  748.17908	  146.80661	    9.65689	  329.06549	
458	4.570	  635.29681	  994.27899	  516.35474	  647.79645	 1063.21150	  513.79370	  742.58197	 1441.60270	  348.01651	  849.07391	 1379.90970	  508.75037	  758.23279	 1434.16780	  685.37836	  721.19562	 1495.97570	  502.60864	  873.46851	  948.00940	  632.94092	  852.65387	  973.42102	  355.78378	  900.63953	  741.24249	  602.01099	  813.73285	  638.93994	  670.42267	  877.33258	  576.59344	  589.96210	  827.89691	  487.07910	  652.43744	  868.98151	  487.89386	  595.99927	  806.71570	  463.94238	  544.11633	  884.56592	  749.71924	  363.43039	  778.37024	  651.00800	  297.02603	  853.13312	  558.05524	  346.31982	  845.91870	  488.56540	  349.34238	  813.64886	  490.62640	  397.93469	  800.23059	  510.52667	  297.68982	  820.83966	  420.90192	  331.46277	  730.37451	  315.37567	  265.35370	  780.41388	  194.92316	  321.78436	  741.21771	   96.54015	  364.98453	  717.33545	   85.07717	  277.19876	  838.67346	  400.65884	  611.26190	  771.06799	  305.02188	  689.17047	  797.63837	  204.38004	  624.32098	  735.20526	   84.97987	  669.43420	  748.56183	  105.90498	  577.43890	  652.53436	   43.76540	  625.19153	  827.71918	   97.76140	  630.64453	  747.23401	   36.95032	  684.35834	  833.71277	   31.70320	  695.96887	  859.07080	   29.36098	  576.91705	  950.71588	   44.74603	  639.15692	  650.66248	   38.18155	  333.65186	  735.11493	   35.20803	  263.82510	  830.30634	   33.51230	  242.33977	  813.59302	   96.33065	  300.49915	  944.63727	   45.36004	  291.45111	  855.36823	   27.43982	  357.23340	  741.01996	 1083.58680	  237.92244	  782.96503	  827.01129	  236.63960	  741.33228	 1076.28250	  774.36029	  803.61029	  824.53790	  748.18372	  146.79236	    9.66488	  329.06485	
459	4.580	  635.30243	  994.25800	  516.38470	  647.74396	 1063.19600	  513.80463	  742.52222	 1441.59170	  348.04977	  849.02423	 1379.90910	  508.76093	  758.23334	 1434.16220	  685.42468	  721.15765	 1495.95630	  502.68893	  873.44733	  948.01044	  632.97107	  852.62244	  973.41296	  355.81061	  900.64221	  741.24915	  602.03088	  813.74078	  638.92859	  670.42072	  877.34442	  576.60077	  589.97510	  827.89838	  487.05981	  652.43756	  868.96637	  487.89282	  595.98877	  806.70374	  463.95102	  544.14490	  884.56128	  749.72888	  363.42816	  778.36182	  651.02429	  297.02576	  853.13550	  558.06958	  346.33066	  845.91876	  488.58347	  349.35303	  813.65704	  490.63849	  397.93411	  800.22986	  510.52774	  297.69595	  820.84088	  420.91763	  331.46857	  730.37476	  315.36356	  265.37350	  780.42035	  194.93353	  321.79163	  741.22534	   96.56731	  364.97516	  717.31445	   85.07906	  277.19162	  838.69019	  400.66708	  611.26611	  771.02795	  304.98099	  689.12555	  797.62488	  204.37125	  624.30957	  735.17169	   84.97460	  669.41382	  748.58661	  105.91677	  577.41541	  652.53839	   43.76641	  625.18597	  827.70410	   97.77922	  630.62805	  747.28851	   36.98976	  684.40118	  833.69373	   31.67516	  695.93884	  859.09119	   29.37907	  576.91992	  950.71100	   44.77449	  639.16504	  650.64679	   38.19032	  333.64404	  735.09698	   35.18102	  263.84085	  830.31854	   33.54568	  242.34470	  813.59216	   96.35161	  300.48907	  944.63000	   45.37215	  291.46301	  855.31396	   27.38615	  357.17218	  740.98169	 1083.58570	  237.95140	  782.96289	  827.02405	  236.63878	  741.31573	 1076.26400	  774.36456	  803.58911	  824.52155	  748.15906	  146.80968	    9.66053	  329.08380	
